<svg width="20" height="20" viewBox="0 0 20 20" fill="none" xmlns="http://www.w3.org/2000/svg">
<path d="M10 9.62101C8.81467 9.62101 7.7999 9.19894 6.95575 8.35482C6.1116 7.51067 5.68953 6.4959 5.68953 5.31052C5.68953 4.12512 6.1116 3.11035 6.95575 2.26622C7.7999 1.42207 8.81467 1 10 1C11.1854 1 12.2002 1.42207 13.0443 2.26622C13.8885 3.11035 14.3106 4.12512 14.3106 5.31052C14.3106 6.4959 13.8885 7.51067 13.0443 8.35482C12.2002 9.19894 11.1854 9.62101 10 9.62101ZM0.763184 19V16.2621C0.763184 15.659 0.927005 15.1004 1.25465 14.5865C1.58227 14.0725 2.02003 13.6774 2.56792 13.4011C3.7853 12.8042 5.01333 12.3566 6.25202 12.0582C7.49071 11.7598 8.74005 11.6106 10 11.6106C11.26 11.6106 12.5094 11.7598 13.7481 12.0582C14.9868 12.3566 16.2148 12.8042 17.4322 13.4011C17.9801 13.6774 18.4178 14.0725 18.7454 14.5865C19.0731 15.1004 19.2369 15.659 19.2369 16.2621V19H0.763184ZM2.61053 17.1526H17.3896V16.2621C17.3896 16.0126 17.3173 15.7817 17.1728 15.5694C17.0284 15.357 16.8322 15.1837 16.5843 15.0495C15.5232 14.5268 14.4413 14.1309 13.3385 13.8617C12.2357 13.5925 11.1229 13.4579 10 13.4579C8.87721 13.4579 7.76439 13.5925 6.66159 13.8617C5.55878 14.1309 4.47686 14.5268 3.4158 15.0495C3.16791 15.1837 2.97172 15.357 2.82726 15.5694C2.68277 15.7817 2.61053 16.0126 2.61053 16.2621V17.1526ZM10 7.77369C10.6774 7.77369 11.2573 7.53251 11.7397 7.05013C12.222 6.56776 12.4632 5.98789 12.4632 5.31052C12.4632 4.63315 12.222 4.05328 11.7397 3.5709C11.2573 3.08853 10.6774 2.84735 10 2.84735C9.32267 2.84735 8.7428 3.08853 8.26043 3.5709C7.77806 4.05328 7.53687 4.63315 7.53687 5.31052C7.53687 5.98789 7.77806 6.56776 8.26043 7.05013C8.7428 7.53251 9.32267 7.77369 10 7.77369Z" fill="#181D22"/>
</svg>
