<svg width="24" height="24" viewBox="0 0 24 24" fill="none" xmlns="http://www.w3.org/2000/svg">
<path d="M5.45455 20.7273C4.54545 20.7273 3.77273 20.4091 3.13636 19.7727C2.5 19.1364 2.18182 18.3636 2.18182 17.4545H0V5.45455C0 4.85455 0.213636 4.34091 0.640909 3.91364C1.06818 3.48636 1.58182 3.27273 2.18182 3.27273H17.4545V7.63636H20.7273L24 12V17.4545H21.8182C21.8182 18.3636 21.5 19.1364 20.8636 19.7727C20.2273 20.4091 19.4545 20.7273 18.5455 20.7273C17.6364 20.7273 16.8636 20.4091 16.2273 19.7727C15.5909 19.1364 15.2727 18.3636 15.2727 17.4545H8.72727C8.72727 18.3636 8.40909 19.1364 7.77273 19.7727C7.13636 20.4091 6.36364 20.7273 5.45455 20.7273ZM5.45455 18.5455C5.76364 18.5455 6.02273 18.4409 6.23182 18.2318C6.44091 18.0227 6.54545 17.7636 6.54545 17.4545C6.54545 17.1455 6.44091 16.8864 6.23182 16.6773C6.02273 16.4682 5.76364 16.3636 5.45455 16.3636C5.14545 16.3636 4.88636 16.4682 4.67727 16.6773C4.46818 16.8864 4.36364 17.1455 4.36364 17.4545C4.36364 17.7636 4.46818 18.0227 4.67727 18.2318C4.88636 18.4409 5.14545 18.5455 5.45455 18.5455ZM2.18182 15.2727H3.05455C3.36364 14.9455 3.71818 14.6818 4.11818 14.4818C4.51818 14.2818 4.96364 14.1818 5.45455 14.1818C5.94545 14.1818 6.39091 14.2818 6.79091 14.4818C7.19091 14.6818 7.54546 14.9455 7.85455 15.2727H15.2727V5.45455H2.18182V15.2727ZM18.5455 18.5455C18.8545 18.5455 19.1136 18.4409 19.3227 18.2318C19.5318 18.0227 19.6364 17.7636 19.6364 17.4545C19.6364 17.1455 19.5318 16.8864 19.3227 16.6773C19.1136 16.4682 18.8545 16.3636 18.5455 16.3636C18.2364 16.3636 17.9773 16.4682 17.7682 16.6773C17.5591 16.8864 17.4545 17.1455 17.4545 17.4545C17.4545 17.7636 17.5591 18.0227 17.7682 18.2318C17.9773 18.4409 18.2364 18.5455 18.5455 18.5455ZM17.4545 13.0909H22.0909L19.6364 9.81818H17.4545V13.0909Z" fill="#CFBDB2"/>
</svg>
