<svg width="24" height="24" viewBox="0 0 24 24" fill="none" xmlns="http://www.w3.org/2000/svg">
<path d="M5.14289 24C4.51432 24 3.97623 23.7762 3.52861 23.3286C3.08099 22.881 2.85718 22.3429 2.85718 21.7143V10.2857C2.85718 9.65714 3.08099 9.11905 3.52861 8.67143C3.97623 8.22381 4.51432 8 5.14289 8H6.28575V5.71429C6.28575 4.13333 6.84289 2.78571 7.95718 1.67143C9.07146 0.557143 10.4191 0 12 0C13.581 0 14.9286 0.557143 16.0429 1.67143C17.1572 2.78571 17.7143 4.13333 17.7143 5.71429V8H18.8572C19.4857 8 20.0238 8.22381 20.4715 8.67143C20.9191 9.11905 21.1429 9.65714 21.1429 10.2857V21.7143C21.1429 22.3429 20.9191 22.881 20.4715 23.3286C20.0238 23.7762 19.4857 24 18.8572 24H5.14289ZM5.14289 21.7143H18.8572V10.2857H5.14289V21.7143ZM8.57146 8H15.4286V5.71429C15.4286 4.7619 15.0953 3.95238 14.4286 3.28571C13.7619 2.61905 12.9524 2.28571 12 2.28571C11.0477 2.28571 10.2381 2.61905 9.57146 3.28571C8.9048 3.95238 8.57146 4.7619 8.57146 5.71429V8Z" fill="#CFBDB2"/>
</svg>
