<svg width="20" height="20" viewBox="0 0 20 20" fill="none" xmlns="http://www.w3.org/2000/svg">
<path d="M17.6 19L11.3 12.7C10.8 13.1 10.225 13.4167 9.575 13.65C8.925 13.8833 8.23333 14 7.5 14C5.68333 14 4.14583 13.3708 2.8875 12.1125C1.62917 10.8542 1 9.31667 1 7.5C1 5.68333 1.62917 4.14583 2.8875 2.8875C4.14583 1.62917 5.68333 1 7.5 1C9.31667 1 10.8542 1.62917 12.1125 2.8875C13.3708 4.14583 14 5.68333 14 7.5C14 8.23333 13.8833 8.925 13.65 9.575C13.4167 10.225 13.1 10.8 12.7 11.3L19 17.6L17.6 19ZM7.5 12C8.75 12 9.8125 11.5625 10.6875 10.6875C11.5625 9.8125 12 8.75 12 7.5C12 6.25 11.5625 5.1875 10.6875 4.3125C9.8125 3.4375 8.75 3 7.5 3C6.25 3 5.1875 3.4375 4.3125 4.3125C3.4375 5.1875 3 6.25 3 7.5C3 8.75 3.4375 9.8125 4.3125 10.6875C5.1875 11.5625 6.25 12 7.5 12Z" fill="#181D22"/>
</svg>
