<svg width="20" height="20" viewBox="0 0 20 20" fill="none" xmlns="http://www.w3.org/2000/svg">
<path d="M4.60728 19C4.12873 19 3.72366 18.8342 3.39208 18.5026C3.0605 18.1711 2.89471 17.766 2.89471 17.2874V6.50205C2.89471 6.0235 3.0605 5.61843 3.39208 5.28685C3.72366 4.95527 4.12873 4.78948 4.60728 4.78948H6.44735V4.55264C6.44735 3.57126 6.79412 2.73381 7.48764 2.04028C8.18115 1.34676 9.01859 1 9.99997 1C10.9814 1 11.8188 1.34676 12.5123 2.04028C13.2058 2.73381 13.5526 3.57126 13.5526 4.55264V4.78948H15.3927C15.8712 4.78948 16.2763 4.95527 16.6079 5.28685C16.9394 5.61843 17.1052 6.0235 17.1052 6.50205V17.2874C17.1052 17.766 16.9394 18.1711 16.6079 18.5026C16.2763 18.8342 15.8712 19 15.3927 19H4.60728ZM4.60728 17.579H15.3927C15.4655 17.579 15.5324 17.5486 15.5931 17.4879C15.6538 17.4271 15.6842 17.3603 15.6842 17.2874V6.50205C15.6842 6.42916 15.6538 6.36235 15.5931 6.30161C15.5324 6.24088 15.4655 6.21052 15.3927 6.21052H13.5526V8.34212C13.5526 8.54374 13.4846 8.71256 13.3485 8.84859C13.2125 8.98462 13.0437 9.05263 12.8421 9.05263C12.6405 9.05263 12.4716 8.98462 12.3356 8.84859C12.1996 8.71256 12.1316 8.54374 12.1316 8.34212V6.21052H7.86836V8.34212C7.86836 8.54374 7.80035 8.71256 7.66432 8.84859C7.5283 8.98462 7.35948 9.05263 7.15786 9.05263C6.95624 9.05263 6.78742 8.98462 6.65139 8.84859C6.51537 8.71256 6.44735 8.54374 6.44735 8.34212V6.21052H4.60728C4.53439 6.21052 4.46758 6.24088 4.40684 6.30161C4.34611 6.36235 4.31575 6.42916 4.31575 6.50205V17.2874C4.31575 17.3603 4.34611 17.4271 4.40684 17.4879C4.46758 17.5486 4.53439 17.579 4.60728 17.579ZM7.86836 4.78948H12.1316V4.55264C12.1316 3.9587 11.9248 3.45495 11.5112 3.04139C11.0977 2.62782 10.5939 2.42103 9.99997 2.42103C9.40603 2.42103 8.90228 2.62782 8.48873 3.04139C8.07515 3.45495 7.86836 3.9587 7.86836 4.55264V4.78948Z" fill="#181D22"/>
</svg>
