<svg width="24" height="24" viewBox="0 0 24 24" fill="none" xmlns="http://www.w3.org/2000/svg">
<path d="M12.0545 20.7273C9.61818 20.7273 7.54545 19.8818 5.83636 18.1909C4.12727 16.5 3.27273 14.4364 3.27273 12V11.8091L1.52727 13.5545L0 12.0273L4.36364 7.66364L8.72727 12.0273L7.2 13.5545L5.45455 11.8091V12C5.45455 13.8182 6.09545 15.3636 7.37727 16.6364C8.65909 17.9091 10.2182 18.5455 12.0545 18.5455C12.5273 18.5455 12.9909 18.4909 13.4455 18.3818C13.9 18.2727 14.3455 18.1091 14.7818 17.8909L16.4182 19.5273C15.7273 19.9273 15.0182 20.2273 14.2909 20.4273C13.5636 20.6273 12.8182 20.7273 12.0545 20.7273ZM19.6364 16.3364L15.2727 11.9727L16.8 10.4455L18.5455 12.1909V12C18.5455 10.1818 17.9045 8.63636 16.6227 7.36364C15.3409 6.09091 13.7818 5.45455 11.9455 5.45455C11.4727 5.45455 11.0091 5.50909 10.5545 5.61818C10.1 5.72727 9.65455 5.89091 9.21818 6.10909L7.58182 4.47273C8.27273 4.07273 8.98182 3.77273 9.70909 3.57273C10.4364 3.37273 11.1818 3.27273 11.9455 3.27273C14.3818 3.27273 16.4545 4.11818 18.1636 5.80909C19.8727 7.5 20.7273 9.56364 20.7273 12V12.1909L22.4727 10.4455L24 11.9727L19.6364 16.3364Z" fill="#CFBDB2"/>
</svg>
