<svg width="100" height="100" viewBox="0 0 100 100" fill="none" xmlns="http://www.w3.org/2000/svg">
<rect width="100" height="100" rx="50" fill="#F8F9FA"/>
<mask id="mask0_57_39" style="mask-type:alpha" maskUnits="userSpaceOnUse" x="18" y="18" width="64" height="64">
<rect x="18" y="18" width="64" height="64" fill="#D9D9D9"/>
</mask>
<g mask="url(#mask0_57_39)">
<path d="M50 49.9334C47.0666 49.9334 44.6666 49 42.8 47.1334C40.9333 45.2667 40 42.8667 40 39.9334C40 37 40.9333 34.6 42.8 32.7334C44.6666 30.8667 47.0666 29.9334 50 29.9334C52.9333 29.9334 55.3333 30.8667 57.2 32.7334C59.0666 34.6 60 37 60 39.9334C60 42.8667 59.0666 45.2667 57.2 47.1334C55.3333 49 52.9333 49.9334 50 49.9334ZM28.6666 71.3334V65.0667C28.6666 63.3778 29.0888 61.9334 29.9333 60.7334C30.7777 59.5334 31.8666 58.6223 33.2 58C36.1777 56.6667 39.0333 55.6667 41.7666 55C44.5 54.3334 47.2444 54 50 54C52.7555 54 55.4888 54.3445 58.2 55.0334C60.9111 55.7223 63.7555 56.7112 66.7333 58C68.1111 58.6223 69.2222 59.5334 70.0666 60.7334C70.9111 61.9334 71.3333 63.3778 71.3333 65.0667V71.3334H28.6666Z" fill="#181D22"/>
</g>
</svg>
