<svg width="100" height="100" viewBox="0 0 100 100" fill="none" xmlns="http://www.w3.org/2000/svg">
<rect width="100" height="100" rx="50" fill="#F8F9FA"/>
<mask id="mask0_57_51" style="mask-type:alpha" maskUnits="userSpaceOnUse" x="18" y="18" width="64" height="64">
<rect x="18" y="18" width="64" height="64" fill="#D9D9D9"/>
</mask>
<g mask="url(#mask0_57_51)">
<path d="M20.5333 71.3333V65.0667C20.5333 63.5111 20.9333 62.1 21.7333 60.8333C22.5333 59.5667 23.6444 58.6222 25.0667 58C28.3111 56.5778 31.2333 55.5556 33.8333 54.9333C36.4333 54.3111 39.1111 54 41.8667 54C44.6222 54 47.2889 54.3111 49.8667 54.9333C52.4444 55.5556 55.3555 56.5778 58.6 58C60.0222 58.6222 61.1444 59.5667 61.9667 60.8333C62.7889 62.1 63.2 63.5111 63.2 65.0667V71.3333H20.5333ZM67.2 71.3333V65.0667C67.2 62.2667 66.4889 59.9667 65.0667 58.1667C63.6444 56.3667 61.7778 54.9111 59.4667 53.8C62.5333 54.1556 65.4222 54.6778 68.1333 55.3667C70.8444 56.0556 73.0444 56.8444 74.7333 57.7333C76.2 58.5778 77.3555 59.6222 78.2 60.8667C79.0444 62.1111 79.4667 63.5111 79.4667 65.0667V71.3333H67.2ZM41.8667 49.9333C38.9333 49.9333 36.5333 49 34.6667 47.1333C32.8 45.2667 31.8667 42.8667 31.8667 39.9333C31.8667 37 32.8 34.6 34.6667 32.7333C36.5333 30.8667 38.9333 29.9333 41.8667 29.9333C44.8 29.9333 47.2 30.8667 49.0667 32.7333C50.9333 34.6 51.8667 37 51.8667 39.9333C51.8667 42.8667 50.9333 45.2667 49.0667 47.1333C47.2 49 44.8 49.9333 41.8667 49.9333ZM65.8667 39.9333C65.8667 42.8667 64.9333 45.2667 63.0667 47.1333C61.2 49 58.8 49.9333 55.8667 49.9333C55.3778 49.9333 54.8333 49.9 54.2333 49.8333C53.6333 49.7667 53.0889 49.6444 52.6 49.4667C53.6667 48.3556 54.4778 46.9889 55.0333 45.3667C55.5889 43.7444 55.8667 41.9333 55.8667 39.9333C55.8667 37.9333 55.5889 36.1667 55.0333 34.6333C54.4778 33.1 53.6667 31.6889 52.6 30.4C53.0889 30.2667 53.6333 30.1556 54.2333 30.0667C54.8333 29.9778 55.3778 29.9333 55.8667 29.9333C58.8 29.9333 61.2 30.8667 63.0667 32.7333C64.9333 34.6 65.8667 37 65.8667 39.9333Z" fill="#1C1B1F"/>
</g>
</svg>
