<svg width="100" height="100" viewBox="0 0 100 100" fill="none" xmlns="http://www.w3.org/2000/svg">
<rect width="100" height="100" rx="50" fill="#F8F9FA"/>
<mask id="mask0_57_43" style="mask-type:alpha" maskUnits="userSpaceOnUse" x="18" y="18" width="64" height="64">
<rect x="18" y="18" width="64" height="64" fill="#D9D9D9"/>
</mask>
<g mask="url(#mask0_57_43)">
<path d="M55.2667 75.5333C54.4667 76.3333 53.5 76.7333 52.3667 76.7333C51.2334 76.7333 50.2667 76.3333 49.4667 75.5333L24.4667 50.5333C24.0223 50.0889 23.7223 49.6222 23.5667 49.1333C23.4112 48.6444 23.3334 48.1333 23.3334 47.6V27.3333C23.3334 26.1778 23.7112 25.2222 24.4667 24.4667C25.2223 23.7111 26.1778 23.3333 27.3334 23.3333H47.6C48.1334 23.3333 48.6667 23.4111 49.2 23.5667C49.7334 23.7222 50.2223 24.0222 50.6667 24.4667L75.5334 49.3333C76.3778 50.1778 76.8 51.1667 76.8 52.3C76.8 53.4333 76.3778 54.4222 75.5334 55.2667L55.2667 75.5333ZM34.3334 37.7333C35.2667 37.7333 36.0778 37.3889 36.7667 36.7C37.4556 36.0111 37.8 35.2 37.8 34.2667C37.8 33.3333 37.4556 32.5222 36.7667 31.8333C36.0778 31.1444 35.2667 30.8 34.3334 30.8C33.4 30.8 32.5889 31.1444 31.9 31.8333C31.2112 32.5222 30.8667 33.3333 30.8667 34.2667C30.8667 35.2 31.2112 36.0111 31.9 36.7C32.5889 37.3889 33.4 37.7333 34.3334 37.7333Z" fill="#181D22"/>
</g>
</svg>
