<svg width="100" height="100" viewBox="0 0 100 100" fill="none" xmlns="http://www.w3.org/2000/svg">
<rect width="100" height="100" rx="50" fill="#F8F9FA"/>
<mask id="mask0_57_47" style="mask-type:alpha" maskUnits="userSpaceOnUse" x="18" y="18" width="64" height="64">
<rect x="18" y="18" width="64" height="64" fill="#D9D9D9"/>
</mask>
<g mask="url(#mask0_57_47)">
<path d="M26 72.5333V39.7333C25.3778 39.6444 24.7778 39.2 24.2 38.4C23.6223 37.6 23.3334 36.7333 23.3334 35.8V27.3333C23.3334 26.3111 23.7334 25.3889 24.5334 24.5667C25.3334 23.7444 26.2667 23.3333 27.3334 23.3333H72.6667C73.6889 23.3333 74.6111 23.7444 75.4334 24.5667C76.2556 25.3889 76.6667 26.3111 76.6667 27.3333V35.8C76.6667 36.7333 76.3778 37.6 75.8 38.4C75.2223 39.2 74.6223 39.6444 74 39.7333V72.5333C74 73.5556 73.5889 74.5 72.7667 75.3667C71.9445 76.2333 71.0223 76.6667 70 76.6667H30C28.9334 76.6667 28 76.2333 27.2 75.3667C26.4 74.5 26 73.5556 26 72.5333ZM72.6667 35.8V27.3333H27.3334V35.8H72.6667ZM42 53.8H58V49.8H42V53.8Z" fill="#1C1B1F"/>
</g>
</svg>
