<svg width="100" height="100" viewBox="0 0 100 100" fill="none" xmlns="http://www.w3.org/2000/svg">
<rect width="100" height="100" fill="#F8F9FA"/>
<path d="M39.9148 32.2216H37.2557C37.1534 31.6534 36.9631 31.1534 36.6847 30.7216C36.4063 30.2898 36.0653 29.9233 35.6619 29.6222C35.2585 29.321 34.8068 29.0937 34.3068 28.9403C33.8125 28.7869 33.2869 28.7102 32.7301 28.7102C31.7244 28.7102 30.8239 28.9631 30.0284 29.4688C29.2386 29.9744 28.6136 30.7159 28.1534 31.6932C27.6989 32.6705 27.4716 33.8636 27.4716 35.2727C27.4716 36.6932 27.6989 37.892 28.1534 38.8693C28.6136 39.8466 29.2415 40.5852 30.0369 41.0852C30.8324 41.5852 31.7273 41.8352 32.7216 41.8352C33.2727 41.8352 33.7955 41.7614 34.2898 41.6136C34.7898 41.4602 35.2415 41.2358 35.6449 40.9403C36.0483 40.6449 36.3892 40.2841 36.6676 39.858C36.9517 39.4261 37.1477 38.9318 37.2557 38.375L39.9148 38.3835C39.7727 39.2415 39.4972 40.0312 39.0881 40.7528C38.6847 41.4688 38.1648 42.0881 37.5284 42.6108C36.8977 43.1278 36.1761 43.5284 35.3636 43.8125C34.5511 44.0966 33.6648 44.2386 32.7045 44.2386C31.1932 44.2386 29.8466 43.8807 28.6648 43.1648C27.483 42.4432 26.5511 41.4119 25.8693 40.071C25.1932 38.7301 24.8551 37.1307 24.8551 35.2727C24.8551 33.4091 25.196 31.8097 25.8778 30.4744C26.5597 29.1335 27.4915 28.1051 28.6733 27.3892C29.8551 26.6676 31.1989 26.3068 32.7045 26.3068C33.6307 26.3068 34.4943 26.4403 35.2955 26.7074C36.1023 26.9687 36.8267 27.3551 37.4688 27.8665C38.1108 28.3722 38.642 28.9915 39.0625 29.7244C39.483 30.4517 39.767 31.2841 39.9148 32.2216ZM58.228 35.2727C58.228 37.1364 57.8871 38.7386 57.2053 40.0795C56.5234 41.4148 55.5888 42.4432 54.4013 43.1648C53.2195 43.8807 51.8757 44.2386 50.37 44.2386C48.8587 44.2386 47.5092 43.8807 46.3217 43.1648C45.1399 42.4432 44.2081 41.4119 43.5263 40.071C42.8445 38.7301 42.5036 37.1307 42.5036 35.2727C42.5036 33.4091 42.8445 31.8097 43.5263 30.4744C44.2081 29.1335 45.1399 28.1051 46.3217 27.3892C47.5092 26.6676 48.8587 26.3068 50.37 26.3068C51.8757 26.3068 53.2195 26.6676 54.4013 27.3892C55.5888 28.1051 56.5234 29.1335 57.2053 30.4744C57.8871 31.8097 58.228 33.4091 58.228 35.2727ZM55.62 35.2727C55.62 33.8523 55.3899 32.6562 54.9297 31.6847C54.4751 30.7074 53.8501 29.9688 53.0547 29.4688C52.2649 28.9631 51.37 28.7102 50.37 28.7102C49.3643 28.7102 48.4666 28.9631 47.6768 29.4688C46.8871 29.9688 46.2621 30.7074 45.8018 31.6847C45.3473 32.6562 45.12 33.8523 45.12 35.2727C45.12 36.6932 45.3473 37.892 45.8018 38.8693C46.2621 39.8409 46.8871 40.5795 47.6768 41.0852C48.4666 41.5852 49.3643 41.8352 50.37 41.8352C51.37 41.8352 52.2649 41.5852 53.0547 41.0852C53.8501 40.5795 54.4751 39.8409 54.9297 38.8693C55.3899 37.892 55.62 36.6932 55.62 35.2727ZM24.9659 73V71.2443L34.1449 57.8125H24.8892V55.5455H37.3665V57.3011L28.1875 70.733H37.4432V73H24.9659ZM40.294 73V71.2443L49.473 57.8125H40.2173V55.5455H52.6946V57.3011L43.5156 70.733H52.7713V73H40.294ZM54.7273 55.5455H57.7188L62.2784 63.4801H62.4659L67.0256 55.5455H70.017L63.6847 66.1477V73H61.0597V66.1477L54.7273 55.5455ZM72.8764 73.1619C72.4105 73.1619 72.0099 72.9972 71.6747 72.6676C71.3395 72.3324 71.1719 71.929 71.1719 71.4574C71.1719 70.9915 71.3395 70.5937 71.6747 70.2642C72.0099 69.929 72.4105 69.7614 72.8764 69.7614C73.3423 69.7614 73.7429 69.929 74.0781 70.2642C74.4134 70.5937 74.581 70.9915 74.581 71.4574C74.581 71.7699 74.5014 72.0568 74.3423 72.3182C74.1889 72.5739 73.9844 72.7784 73.7287 72.9318C73.473 73.0852 73.1889 73.1619 72.8764 73.1619Z" fill="#181D22"/>
</svg>
